<svg xmlns="http://www.w3.org/2000/svg" width="1080" height="660" viewBox="0 0 1080 660">
  <rect width="100%" height="100%" fill="#ffffff"/>
  <style>
    text { font-family: -apple-system, BlinkMacSystemFont, "Segoe UI", sans-serif; fill: #172033; }
    .title { font-size: 28px; font-weight: 750; }
    .subtitle { font-size: 14px; fill: #5b667a; }
    .label { font-size: 13px; fill: #172033; }
    .small { font-size: 12px; fill: #5b667a; }
    .value { font-size: 13px; font-weight: 700; }
  </style>
<text x="48" y="56" class="title">Latencia p95 vs umbral</text>
<text x="48" y="84" class="subtitle">Comparacion agregada desde los JSON de K6. No representa curva temporal.</text>
<line x1="120" y1="520.0" x2="970" y2="520.0" stroke="#d8dee9" stroke-width="1"/>
<text x="108" y="524.0" text-anchor="end" class="small">0 ms</text>
<line x1="120" y1="442.0" x2="970" y2="442.0" stroke="#d8dee9" stroke-width="1"/>
<text x="108" y="446.0" text-anchor="end" class="small">170 ms</text>
<line x1="120" y1="364.0" x2="970" y2="364.0" stroke="#d8dee9" stroke-width="1"/>
<text x="108" y="368.0" text-anchor="end" class="small">340 ms</text>
<line x1="120" y1="286.0" x2="970" y2="286.0" stroke="#d8dee9" stroke-width="1"/>
<text x="108" y="290.0" text-anchor="end" class="small">510 ms</text>
<line x1="120" y1="208.0" x2="970" y2="208.0" stroke="#d8dee9" stroke-width="1"/>
<text x="108" y="212.0" text-anchor="end" class="small">680 ms</text>
<line x1="120" y1="130.0" x2="970" y2="130.0" stroke="#d8dee9" stroke-width="1"/>
<text x="108" y="134.0" text-anchor="end" class="small">850 ms</text>
<line x1="120" y1="520" x2="970" y2="520" stroke="#172033" stroke-width="1.4"/>
<line x1="120" y1="130" x2="120" y2="520" stroke="#172033" stroke-width="1.4"/>
<rect x="185.7" y="507.1" width="70.0" height="12.9" rx="4" fill="#2563eb"/>
<rect x="267.7" y="152.9" width="70.0" height="367.1" rx="4" fill="#dc2626" opacity="0.78"/>
<text x="220.7" y="499.1" text-anchor="middle" class="value">28.15 ms</text>
<text x="302.7" y="144.9" text-anchor="middle" class="small">800 ms</text>
<text x="261.7" y="554.0" text-anchor="middle" class="label">Load 150 VUs</text>
<text x="261.7" y="574.0" text-anchor="middle" class="small">http_req_duration</text>
<rect x="469.0" y="501.0" width="70.0" height="19.0" rx="4" fill="#14b8a6"/>
<rect x="551.0" y="497.1" width="70.0" height="22.9" rx="4" fill="#dc2626" opacity="0.78"/>
<text x="504.0" y="493.0" text-anchor="middle" class="value">41.50 ms</text>
<text x="586.0" y="489.1" text-anchor="middle" class="small">50 ms</text>
<text x="545.0" y="554.0" text-anchor="middle" class="label">Circuit breaker</text>
<text x="545.0" y="574.0" text-anchor="middle" class="small">status 503</text>
<rect x="752.3" y="516.5" width="70.0" height="3.5" rx="4" fill="#f59e0b"/>
<rect x="834.3" y="382.4" width="70.0" height="137.6" rx="4" fill="#dc2626" opacity="0.78"/>
<text x="787.3" y="508.5" text-anchor="middle" class="value">7.64 ms</text>
<text x="869.3" y="374.4" text-anchor="middle" class="small">300 ms</text>
<text x="828.3" y="554.0" text-anchor="middle" class="label">Cache catalogo</text>
<text x="828.3" y="574.0" text-anchor="middle" class="small">warm p95</text>
<rect x="700" y="42" width="18" height="18" rx="3" fill="#2563eb"/>
<text x="726" y="56" class="small">Resultado observado</text>
<rect x="700" y="70" width="18" height="18" rx="3" fill="#dc2626" opacity="0.78"/>
<text x="726" y="84" class="small">Umbral</text>
</svg>
